<svg width="600" height="400" viewBox="0 0 600 400" xmlns="http://www.w3.org/2000/svg">
    <defs>
        <linearGradient id="bgGradient" x1="0%" y1="0%" x2="100%" y2="100%">
            <stop offset="0%" style="stop-color:#2c5aa0;stop-opacity:1" />
            <stop offset="100%" style="stop-color:#17a2b8;stop-opacity:1" />
        </linearGradient>
        <pattern id="hotelPattern" x="0" y="0" width="60" height="60" patternUnits="userSpaceOnUse">
            <circle cx="30" cy="30" r="2" fill="rgba(255,255,255,0.1)"/>
        </pattern>
    </defs>
    
    <!-- Background -->
    <rect width="600" height="400" fill="url(#bgGradient)"/>
    <rect width="600" height="400" fill="url(#hotelPattern)"/>
    
    <!-- Hotel Building -->
    <g transform="translate(150, 100)">
        <!-- Main building -->
        <rect x="0" y="50" width="300" height="200" fill="rgba(255,255,255,0.9)" rx="5"/>
        <rect x="0" y="50" width="300" height="20" fill="rgba(255,255,255,1)"/>
        
        <!-- Windows -->
        <g fill="rgba(44,90,160,0.3)">
            <rect x="20" y="80" width="15" height="20" rx="2"/>
            <rect x="50" y="80" width="15" height="20" rx="2"/>
            <rect x="80" y="80" width="15" height="20" rx="2"/>
            <rect x="110" y="80" width="15" height="20" rx="2"/>
            <rect x="140" y="80" width="15" height="20" rx="2"/>
            <rect x="170" y="80" width="15" height="20" rx="2"/>
            <rect x="200" y="80" width="15" height="20" rx="2"/>
            <rect x="230" y="80" width="15" height="20" rx="2"/>
            <rect x="260" y="80" width="15" height="20" rx="2"/>
            
            <rect x="20" y="120" width="15" height="20" rx="2"/>
            <rect x="50" y="120" width="15" height="20" rx="2"/>
            <rect x="80" y="120" width="15" height="20" rx="2"/>
            <rect x="110" y="120" width="15" height="20" rx="2"/>
            <rect x="140" y="120" width="15" height="20" rx="2"/>
            <rect x="170" y="120" width="15" height="20" rx="2"/>
            <rect x="200" y="120" width="15" height="20" rx="2"/>
            <rect x="230" y="120" width="15" height="20" rx="2"/>
            <rect x="260" y="120" width="15" height="20" rx="2"/>
            
            <rect x="20" y="160" width="15" height="20" rx="2"/>
            <rect x="50" y="160" width="15" height="20" rx="2"/>
            <rect x="80" y="160" width="15" height="20" rx="2"/>
            <rect x="110" y="160" width="15" height="20" rx="2"/>
            <rect x="140" y="160" width="15" height="20" rx="2"/>
            <rect x="170" y="160" width="15" height="20" rx="2"/>
            <rect x="200" y="160" width="15" height="20" rx="2"/>
            <rect x="230" y="160" width="15" height="20" rx="2"/>
            <rect x="260" y="160" width="15" height="20" rx="2"/>
        </g>
        
        <!-- Entrance -->
        <rect x="130" y="200" width="40" height="50" fill="rgba(44,90,160,0.7)" rx="3"/>
        <rect x="140" y="210" width="20" height="30" fill="rgba(255,255,255,0.3)" rx="2"/>
        
        <!-- Palm trees -->
        <g fill="rgba(34,139,34,0.6)">
            <!-- Left palm -->
            <rect x="-20" y="200" width="4" height="40" rx="2"/>
            <ellipse cx="-18" cy="195" rx="15" ry="8"/>
            <ellipse cx="-18" cy="190" rx="12" ry="6" transform="rotate(-30 -18 190)"/>
            <ellipse cx="-18" cy="190" rx="12" ry="6" transform="rotate(30 -18 190)"/>
            
            <!-- Right palm -->
            <rect x="316" y="200" width="4" height="40" rx="2"/>
            <ellipse cx="318" cy="195" rx="15" ry="8"/>
            <ellipse cx="318" cy="190" rx="12" ry="6" transform="rotate(-30 318 190)"/>
            <ellipse cx="318" cy="190" rx="12" ry="6" transform="rotate(30 318 190)"/>
        </g>
    </g>
    
    <!-- Pool -->
    <ellipse cx="300" cy="320" rx="120" ry="40" fill="rgba(23,162,184,0.6)"/>
    <ellipse cx="300" cy="315" rx="100" ry="30" fill="rgba(23,162,184,0.8)"/>
    
    <!-- Sun -->
    <circle cx="500" cy="80" r="30" fill="rgba(255,215,0,0.8)"/>
    <g stroke="rgba(255,215,0,0.6)" stroke-width="3" stroke-linecap="round">
        <line x1="500" y1="30" x2="500" y2="40"/>
        <line x1="535.36" y1="44.64" x2="528.28" y2="51.72"/>
        <line x1="540" y1="80" x2="530" y2="80"/>
        <line x1="535.36" y1="115.36" x2="528.28" y2="108.28"/>
        <line x1="500" y1="120" x2="500" y2="130"/>
        <line x1="464.64" y1="115.36" x2="471.72" y2="108.28"/>
        <line x1="460" y1="80" x2="470" y2="80"/>
        <line x1="464.64" y1="44.64" x2="471.72" y2="51.72"/>
    </g>
    
    <!-- Clouds -->
    <g fill="rgba(255,255,255,0.7)">
        <ellipse cx="100" cy="60" rx="20" ry="12"/>
        <ellipse cx="120" cy="60" rx="25" ry="15"/>
        <ellipse cx="140" cy="60" rx="18" ry="10"/>
        
        <ellipse cx="450" cy="120" rx="15" ry="8"/>
        <ellipse cx="465" cy="120" rx="20" ry="12"/>
    </g>
    
    <!-- Text -->
    <text x="300" y="50" text-anchor="middle" font-family="Arial, sans-serif" font-size="28" font-weight="bold" fill="rgba(255,255,255,0.9)">
        Maria Havens
    </text>
    
    <text x="300" y="380" text-anchor="middle" font-family="Arial, sans-serif" font-size="16" fill="rgba(255,255,255,0.8)">
        Your Luxury Escape Awaits
    </text>
</svg>
